<svg xmlns="http://www.w3.org/2000/svg" xml:space="preserve" viewBox="332.86 253.63 2162.67 2321.18"><path d="M14199.5 15284.5c76.5 240.8 156.3 487.9 315.7 683.8 159.4 196 419.3 331.7 664.7 271.8 170.1-41.6 318.9-190.5 325-365.5 3.1-89.4-29-175.9-61-259.4-378.3-987.3-1749.1-3900.7-2035-4373.4-94.8-156.7-774-1340.98-824.5-707.7-8.7 108.4 25.2 215.3 58.7 318.8 161.4 499.7 322.4 999.2 485.1 1498.2 324.3 994.3 757.8 1945.8 1071.3 2933.4" style="fill:#433f4c;fill-opacity:1;fill-rule:nonzero;stroke:none" transform="matrix(.15312 0 0 -.15312 0 2829.333)"/><path d="M13936.4 15292.5c75.9 238.9 155 484 313.3 678.4 158.2 194.4 416 329.1 659.5 269.6 168.6-41.1 316.3-189 322.4-362.5 3.1-88.8-28.8-174.5-60.5-257.4-375.2-979.6-1735.4-3870-2019.1-4339.1-94-155.4-768-1330.37-818-702.1-8.5 107.6 25.1 213.6 58.3 316.3 160 495.8 319.9 991.3 481.3 1486.5 321.7 986.4 751.7 1930.4 1062.8 2910.3" style="fill:#7c7984;fill-opacity:1;fill-rule:nonzero;stroke:none" transform="matrix(.15433 0 0 -.15433 0 2829.333)"/><path d="M13936.4 15292.5c75.9 238.9 155 484 313.3 678.4 158.2 194.4 416 329.1 659.5 269.6 168.6-41.1 316.3-189 322.4-362.5 3.1-88.8-28.8-174.5-60.5-257.4-375.2-979.6-1735.4-3870-2019.1-4339.1-94-155.4-768-1330.37-818-702.1-8.5 107.6 25.1 213.6 58.3 316.3 160 495.8 319.9 991.3 481.3 1486.5 321.7 986.4 751.7 1930.4 1062.8 2910.3" style="fill:#7c7984;fill-opacity:1;fill-rule:nonzero;stroke:none" transform="matrix(.15433 0 0 -.15433 0 2829.333)"/><path d="M5223.19 16163.3c-33.09 68.9-97.04 133.4-173.54 135.5-43.98 1.2-83.82-23-123.29-42.5-213.1-105.3-469.95-273.5-705.54-294.4-151.18-13.4-293.57-88.6-445.34-88.6-31.88-.1-65.34 3-94.1-10.7-44.93-21.5-62.53-75.2-75.65-123.2-24.27-89.4-46.42-147.4-14.14-234.7 27.46-74.2 60.38-146.9 90.47-220.1 64.71-157.8 129.26-315.6 193.73-473.5 133.23-326.3 265.96-652.9 398.31-979.6 365.68-902.5 728.74-1806 1091.42-2709.6 61.84-154.1 850.91-2147.49 861.8-2143.47l1587.33 585.62c-557.21 1928.65-2352 6100.05-2591.46 6599.25" style="fill:#683a38;fill-opacity:1;fill-rule:nonzero;stroke:none" transform="matrix(.15569 0 0 -.15569 0 2829.333)"/><path d="M5198.67 16165.3c-32.6 68-95.66 131.4-170.97 133.5-43.36 1.2-82.59-22.6-121.47-41.8-417.23-206.3-841.29-368.3-1241.63-592.6-32.14-18-67.04-39.3-77.81-74.6-8.76-28.6-.99-60 10.44-87.8 899.45-2186.8 2017.19-4998.5 2590.63-6414.93l1563.78 576.92C7202.71 11564 5434.57 15673.5 5198.67 16165.3" style="fill:#9c6b66;fill-opacity:1;fill-rule:nonzero;stroke:none" transform="matrix(.15803 0 0 -.15803 0 2829.333)"/><path d="M5198.67 16165.3c-32.6 68-95.66 131.4-170.97 133.5-43.36 1.2-82.59-22.6-121.47-41.8-417.23-206.3-841.29-368.3-1241.63-592.6-32.14-18-67.04-39.3-77.81-74.6-8.76-28.6-.99-60 10.44-87.8 899.45-2186.8 2017.19-4998.5 2590.63-6414.93l1563.78 576.92C7202.71 11564 5434.57 15673.5 5198.67 16165.3" style="fill:#9c6b66;fill-opacity:1;fill-rule:nonzero;stroke:none" transform="matrix(.15803 0 0 -.15803 0 2829.333)"/><path d="M4071.42 15730.8a16063 16063 0 0 1 1180.99 533.1l-18.04 36.1c-385.39-193-778.49-370.4-1178.09-531.8l15.15-37.4z" style="fill:#683a38;fill-opacity:1;fill-rule:nonzero;stroke:none" transform="matrix(.1527 0 0 -.1527 0 2829.333)"/><path d="M4403.5 15556.1c487.19 235.4 974.32 470.9 1461.5 706.3l-18.12 37.6c-487.21-235.4-974.34-470.9-1461.52-706.3l18.17-37.6z" style="fill:#683a38;fill-opacity:1;fill-rule:nonzero;stroke:none" transform="matrix(.14767 0 0 -.14767 0 2829.333)"/><path d="M4989.55 15601.7c456.3 200 903.73 420.2 1340.57 659.6l-21.17 38.7c-435.76-238.8-882.02-458.4-1337.11-657.9l17.74-40.4z" style="fill:#683a38;fill-opacity:1;fill-rule:nonzero;stroke:none" transform="matrix(.1396 0 0 -.1396 0 2829.333)"/><path d="M5602.2 15497.3c549.44 273.1 1108.52 526.6 1675.93 760l-17.53 42.7c-568.47-233.8-1128.56-487.8-1678.96-761.3l20.58-41.4z" style="fill:#683a38;fill-opacity:1;fill-rule:nonzero;stroke:none" transform="matrix(.13343 0 0 -.13343 0 2829.333)"/><path d="M5899.56 14755.5c492.69 230.4 998.54 432.7 1514.4 605.2l-14.66 43.9c-517.53-173.2-1025.05-376-1519.36-607.3l19.64-41.8zm461.31-612.5c511.98 211.2 1012.78 449.5 1499.65 713.5l-22.02 40.7a15676 15676 0 0 0-1495.24-711.5l17.64-42.7zm195.06-618.2c527.81 235.4 1061.83 457 1601.39 664.3l-16.56 43.1c-540.31-207.5-1075.13-429.4-1603.67-665.2l18.86-42.2z" style="fill:#683a38;fill-opacity:1;fill-rule:nonzero;stroke:none" transform="matrix(.13333 0 0 -.13333 0 2829.333)"/><path d="M4170.03 16284.8a88286 88286 0 0 1 2065.1-4755.7l37.09 17.4C5537.8 13110.4 4849.4 14695.8 4208.04 16300l-38-15.2z" style="fill:#683a38;fill-opacity:1;fill-rule:nonzero;stroke:none" transform="matrix(.15048 0 0 -.15048 0 2829.333)"/><path d="M4744.43 16283.9c633.82-1472.7 1078.21-3023.9 1726.33-4494.3l37.27 16.4c-646.75 1467-1091.1 3018-1726.22 4494l-37.36-16.1z" style="fill:#683a38;fill-opacity:1;fill-rule:nonzero;stroke:none" transform="matrix(.15142 0 0 -.15142 0 2829.333)"/><path d="M4939.36 16284.5c419.86-998.5 815.19-2007.3 1185.45-3025.3l37.61 13.7c-370.5 1018.5-766.09 2028-1186.21 3027.1l-36.82-15.5z" style="fill:#683a38;fill-opacity:1;fill-rule:nonzero;stroke:none" transform="matrix(.15412 0 0 -.15412 0 2829.333)"/><path d="M4066.7 16191.7c-62.26 62.5-156.41 108.3-240.41 81.5-48.4-15.3-82.56-56.8-118.11-93-191.96-195.7-407.69-476.3-656.22-588.6-159.48-72-285.92-208-451.12-265.7-34.69-12.1-72.27-21.5-98.38-47.4-40.76-40.4-39.55-105.5-35.51-162.8 7.45-106.5 5.44-178.1 73.75-260.8 58.07-70.4 121.53-137 182.1-205.3 130.37-147.2 260.61-294.5 390.75-441.8 269.03-304.7 537.57-609.7 805.79-915.1 740.93-843.5 1479.46-1689.2 2217.61-2535.1 125.86-144.3 1742.11-2014.42 1752.46-2005.92l1505.44 1240.55C8055.57 11880.1 4517 15739.2 4066.7 16191.7" style="fill:#683a38;fill-opacity:1;fill-rule:nonzero;stroke:none" transform="matrix(.13503 0 0 -.13503 0 2829.333)"/><path d="M3962.01 16193.6c-61.13 61.4-153.64 106.4-236.24 80.1-47.51-15.1-81.08-55.8-116.01-91.4-374.9-382.1-773.95-718.7-1123.66-1114-28.12-31.7-57.91-68.1-56.25-110.5 1.33-34.4 21.7-65.6 44.58-91.4C4279.84 12832.8 6559 10203.2 7718.44 8882.51l1479.39 1219.09c-1316.05 1855.1-4793.32 5647.3-5235.82 6092" style="fill:#9c6b66;fill-opacity:1;fill-rule:nonzero;stroke:none" transform="matrix(.1374 0 0 -.1374 0 2829.333)"/><path d="M3962.01 16193.6c-61.13 61.4-153.64 106.4-236.24 80.1-47.51-15.1-81.08-55.8-116.01-91.4-374.9-382.1-773.95-718.7-1123.66-1114-28.12-31.7-57.91-68.1-56.25-110.5 1.33-34.4 21.7-65.6 44.58-91.4C4279.84 12832.8 6559 10203.2 7718.44 8882.51l1479.39 1219.09c-1316.05 1855.1-4793.32 5647.3-5235.82 6092" style="fill:#9c6b66;fill-opacity:1;fill-rule:nonzero;stroke:none" transform="matrix(.1374 0 0 -.1374 0 2829.333)"/><path d="M3044.79 15115.6c372.21 326.1 731.23 667.2 1075.92 1022.2l-33.12 32.1c-343.85-354-701.99-694.3-1073.26-1019.5l30.48-34.8zm461.64-672.7c423.52 424 847.01 848 1270.53 1272l-32.69 32.7c-423.56-424-847.03-848-1270.56-1272l32.74-32.7zm622.28-729.7c381.96 355.2 748.32 727.2 1097.63 1114.6l-34.3 30.9c-348.41-386.4-713.84-757.4-1094.83-1111.7l31.52-33.8zm633.07-655.1c429.04 439.2 873.76 863.1 1332.93 1270.7l-30.65 34.6a25922 25922 0 0 1-1335.34-1273l33.09-32.3zm525.11-614c389.18 379.9 800.22 737.5 1230.35 1070.4l-28.26 36.6c-431.57-334-843.91-692.8-1234.36-1074l32.29-33zm637.37-426.3c413.76 368.1 808.1 758.1 1180.72 1167.8l-34.15 31.1c-371.57-408.5-764.75-797.3-1177.29-1164.3l30.75-34.6zm387.82-519.4c420.75 396.2 852 781.4 1293.11 1154.8l-29.86 35.3c-441.73-374-873.61-759.6-1294.95-1156.5l31.72-33.6z" style="fill:#683a38;fill-opacity:1;fill-rule:nonzero;stroke:none" transform="matrix(.13333 0 0 -.13333 0 2829.333)"/><path d="M2966.28 15472.2c1280.53-1471.6 2604.33-2905.7 3969.03-4299.6l33.04 32.3a99586 99586 0 0 0-3967.21 4297.7l-34.83-30.4zm606.13 331.9c1230.72-1341.9 2287.61-2838.8 3532.78-4172.9l33.82 31.5c-1242.43 1331-2299.22 2827.7-3532.52 4172.6l-34.05-31.2zm194.57 417.5c838.53-929.8 1654.19-1880.2 2445.97-2850.1l35.81 29.3a76431 76431 0 0 1-2447.45 2851.7l-34.31-30.9z" style="fill:#683a38;fill-opacity:1;fill-rule:nonzero;stroke:none" transform="matrix(.13333 0 0 -.13333 0 2829.333)"/><path d="M7864.86 15257.9c-954.45-861.6-1323.69-2171.9-901.14-3393.3 122.61-354.4 313.24-689.7 583.45-949.8 369.28-355.3 866.1-551.5 1367.48-657.7 806.64-171 1860.85-150 2624.05 162.4 763.1 312.4 1220.9 644.2 1565.2 1393.5 344.4 749.3 361.7 1937.2-15.2 2670.6-317.8 618.6-891.4 1087.8-1539.8 1339.1-1231 477.3-2586 377.2-3616.87-505.7-22.69-19.5-45.1-39.2-67.17-59.1" style="fill:#f683b1;fill-opacity:1;fill-rule:nonzero;stroke:none" transform="matrix(.14807 0 0 -.14807 0 2829.333)"/><path d="M13697.4 15157.2c-243.8 474.5-631.7 864.5-1088.5 1142.8 292.7-291.7 522.9-651.9 611.2-1045.2 121.8-542.4-93.2-1055-558-1355-238.2-153.7-509.9-248.6-771.5-354-291.1-117.4-508.3-268-758.1-454.4-526.7-393-1144.28-22.5-1688.78 165.1-754.14 259.9-1539.21 483.4-2336.17 299.5-8.09-378.4 49.73-763 180.03-1139.6 128.32-370.9 327.76-721.8 610.59-994 386.45-371.8 906.37-577.1 1431.07-688.3 844.16-178.9 1947.36-156.9 2745.96 170 798.7 327 1277.8 674.2 1638.1 1458.3 360.4 784.1 378.6 2027.3-15.9 2794.8" style="fill:#f46da2;fill-opacity:1;fill-rule:nonzero;stroke:none" transform="matrix(.14149 0 0 -.14149 0 2829.333)"/><path d="M9817.79 15510.8c-649.89-386.4-1455.89-778.8-1863.75-1444.1-78.12-127.4-146.05-267.1-263.68-359.3-30.14-23.6-78.56-41.6-102.35-11.6-10.99 13.9-11.49 33.1-11.04 50.9 18.02 710.4 572.33 1364.6 1043.44 1841.6 255.42 258.6 544.15 493.7 882.2 627.2 124.74 49.3 260.15 84.5 392.48 62.4 132.21-22 259.91-112.9 291.61-243.2 54.4-223.2-171.6-406.5-368.91-523.9" style="fill:#fabdd4;fill-opacity:1;fill-rule:nonzero;stroke:none" transform="matrix(.14248 0 0 -.14248 0 2829.333)"/><path d="M10490.4 15061.1c4.1-99.7 37.7-201.5 108.7-275.7 56.8-59.1 137.2-96.5 219.6-96.7 21.3 0 42.8 2.6 63.9 8 83.9 22 146.8 81.6 202.8 136.7 55.7 55.3 110.6 110 177 133.4 18.9 6.7 40 10.3 60.8 10.3 24.7 0 49-5 69.2-14.8 20.4-9.8 36.6-23.9 47.3-42.9l43.5 24.4c-16.3 29-41.1 50.1-69.1 63.5-28.2 13.5-59.5 19.7-90.9 19.7-26.4 0-52.9-4.5-77.6-13.2-80.8-29.1-139.8-90.4-195.3-145-55.1-54.7-112.7-106.6-180.2-123.8-16.8-4.3-34-6.4-51.4-6.4-66.9-.1-136 31.5-183.6 81.3-60.5 62.9-91.3 153.2-94.9 243.3z" style="fill:#f46da2;fill-opacity:1;fill-rule:nonzero;stroke:none" transform="matrix(.13333 0 0 -.13333 0 2829.333)"/><path d="M11652 16056.1c27-110.4 84.1-221.1 184.3-284.7 46.7-29.4 102.3-44.9 157.3-44.9 64.7 0 129.7 21.8 176 70.7 55.9 59.8 72.1 138.2 101.8 200.6 13.2 28.3 32.6 56.4 55.2 76.4 22.6 20.2 47.3 31.9 72.7 31.9l11.2-.8c16.3-2.1 32.7-9.3 50.4-19.1 17.7-9.7 36.5-21.9 58.2-31.4 27.9-12.2 57.8-18 87.7-18 50 0 100.1 16.2 139.9 47.9v.1c52.8 42.3 82.9 108.3 83.1 175.2 0 13.4-1.3 26.8-3.8 40l-47.1-8.9c1.9-10.2 2.8-20.7 2.8-31.1.1-52.2-24.5-105.5-65-137.7-30.4-24.4-70.3-37.5-109.9-37.5-23.6 0-47.1 4.7-68.4 14-17.1 7.4-34.9 18.7-54.4 29.5-19.6 10.7-41.3 21.1-67 24.6q-9.15 1.2-17.7 1.2c-40.7 0-76.3-18.6-104.8-44-28.6-25.7-51-58.6-66.6-91.9-31.9-69.7-48.8-142-93.2-188-35.3-37.4-86.8-55.6-141.1-55.7-46 0-93.1 13.2-131.6 37.6-85.4 53.6-138.3 152.5-163.4 255.4z" style="fill:#f46da2;fill-opacity:1;fill-rule:nonzero;stroke:none" transform="matrix(.13846 0 0 -.13846 0 2829.333)"/><path d="M10228.4 16248c-.9-6.6-1.4-13.1-1.4-19.6.1-51.8 26.6-97.6 64.3-129.9 37.8-32.3 87.3-52.5 138.1-52.6 11.7 0 23.3 1.1 34.9 3.4 57.9 11.3 106.7 44.7 143.1 88.5 36.5 43.9 61 98.2 71.1 154l-45.2 8.2c-8.6-48-30.3-95.6-61.2-132.8-31.1-37.2-70.9-63.9-116.7-72.8-8.4-1.7-17.2-2.5-26-2.5-38.4-.1-78.6 15.9-108.2 41.5-29.8 25.6-48.2 59.6-48.2 95 0 4.4.4 8.9.9 13.5z" style="fill:#f46da2;fill-opacity:1;fill-rule:nonzero;stroke:none" transform="matrix(.14463 0 0 -.14463 0 2829.333)"/><path d="M13639.5 3008.7c-626.6 126.9-1299.9 129.3-1936 153.2-882.4 33.1-1806.7 66.7-2678.17-102.2-213.84-41.5-691.05-167-711.03-447-23.68-332.5 572.37-417.3 802.18-460 658.37-122 1331.82-194.1 1999.82-225.6 873.1-41.4 1756-14.8 2621.5 111.7 216 31.5 676.6 143.3 762.4 377.6 158.1 432.2-579.2 533.6-856.7 591.4z" style="fill:#3a3741;fill-opacity:1;fill-rule:nonzero;stroke:none" transform="matrix(.13333 0 0 -.13333 0 2829.333)"/><path d="M3116.78 9078.42c667.03-1619.41 1301.93-2865.27 1980.77-3941.71 882.43-1399.5 1889.49-2147.85 2907.5-2540.4 1594.14-614.65 3919.35-597.06 5494.05 1158.32 393 437.93 755.1 990.57 1107.2 1603.39 597.7 1040.39 1144.3 2265.08 1693.7 3720.4z" style="fill:#6c6876;fill-opacity:1;fill-rule:nonzero;stroke:none" transform="matrix(.15308 0 0 -.15308 0 2829.333)"/><path d="M3578.51 10423.2c765.79-1859.3 1494.74-3289.7 2274.13-4525.6 284.19-450.8 575.14-837.4 870.3-1171 610.86-333.2 1234.48-466.2 1765.24-255.1 611.94 243.3 997.81 948.3 1236.44 1862.9 283.28 1085.4 415.78 2511.2 402.48 4088.8z" style="fill:#7c7984;fill-opacity:1;fill-rule:nonzero;stroke:none" transform="matrix(.13333 0 0 -.13333 0 2829.333)"/><path d="M14478.4 9078.42c-71.6-255.89-144.8-504.82-220.1-746.51-436.1-1399.33-956-2616-1567.8-3496.91-594.2-855.48-1274.6-1366.22-1974.1-1620.12-768.91-279.15-1571.52-278.36-2350.99-183.16-648.06 79.08-1333.01 224.01-2010.48 580.33 525.9-472.24 1083.11-797.12 1650.12-1015.74 1594.14-614.65 3919.45-597.06 5494.15 1158.32 392.9 437.93 755 990.57 1107.1 1603.39 597.7 1040.39 1144.3 2265.08 1693.7 3720.4z" style="fill:#433f4c;fill-opacity:1;fill-rule:nonzero;stroke:none" transform="matrix(.15308 0 0 -.15308 0 2829.333)"/><path d="M10164.9 3237.3c1100.8 47.3 2104.8 515.4 3031.9 1079.5 126.9 77.2 10.9 277.1-116.6 199.5-891.2-542.2-1856.1-1002.3-2915.3-1047.9-148.2-6.4-148.9-237.5 0-231.1m3379.9 1317.8c102.9 100.3 205.9 200.6 308.8 300.8 106.7 104-56.8 267.4-163.4 163.4-103-100.2-205.9-200.5-308.9-300.8-106.7-104 56.8-267.3 163.5-163.4" style="fill:#433f4c;fill-opacity:1;fill-rule:nonzero;stroke:none" transform="matrix(.13333 0 0 -.13333 0 2829.333)"/><path d="M15415.6 7498.06c312.1 650.19 590.5 1315.24 834.2 1994.13 50.2 139.73-172.3 199.93-222.2 61.2-237-660.26-507.3-1306.67-810.9-1939.02-63.9-133.05 134.6-249.96 198.9-116.31" style="fill:#433f4c;fill-opacity:1;fill-rule:nonzero;stroke:none" transform="matrix(.13379 0 0 -.13379 0 2829.333)"/><path d="M8883.16 3653.3c656.32-115.5 1312.74-124.7 1972.24-29.3 146.7 21.3 84.3 244-61.4 222.9-615.7-89.1-1236.78-78.6-1849.4 29.3-145.43 25.6-207.89-197.1-61.44-222.9" style="fill:#433f4c;fill-opacity:1;fill-rule:nonzero;stroke:none" transform="matrix(.13333 0 0 -.13333 0 2829.333)"/><path d="M7084.54 5273.7c132.62-147.2 275.18-293.4 446.82-358.5 29.66-11.3 62.85-19.7 89.89-4 65.82 38.2 30.6 157.8-11.5 233.1-880.63 1575.5-1407.35 3314-1843.83 5095.6-25 102-52.28 208.7-115.52 286.2-104.32 127.7-271.18 136.4-416.66 121.1-123.36-12.9-245.5-36.5-365.07-70.5-46.47-13.2-94.02-28.8-130.27-64.4-68.9-67.5-79.56-187.3-78.63-295.4 4.77-536.4 246.91-1139 435.37-1629.8 286.51-745.9 686.9-1525.3 1112.53-2173.6 266.35-405.7 559.65-787.7 876.87-1139.8" style="fill:#d6d4db;fill-opacity:1;fill-rule:nonzero;stroke:none" transform="matrix(.13333 0 0 -.13333 0 2829.333)"/><path d="M16300 9096.55c0-551.78-2951.9-999.06-6593.31-999.06-3641.4 0-6593.31 447.28-6593.31 999.06 0 551.79 2951.91 999.05 6593.31 999.05 3641.41 0 6593.31-447.26 6593.31-999.05" style="fill:#7c7984;fill-opacity:1;fill-rule:nonzero;stroke:none" transform="matrix(.1531 0 0 -.1531 0 2829.333)"/><path d="M16300 9335.93c0-78.48-105.7-154.9-300.8-225.51-11.6-4.2-23.9-8.66-36.3-12.78-63.7-21.98-136.3-42.99-216.5-64.08-941.5-244.54-2990.6-418.47-5402.5-435.46-126.5-.8-253.7-1.25-381.78-1.25-78.47 0-156.95 0-235.07.45-2165.2 9.12-4053.22 144.97-5135.61 346.16-187.16 34.77-350.38 71.51-486.72 109.94l-7 2.06c-304.88 85.89-473.44 180.9-473.44 280.47 0 94.2 149.54 183.05 421.79 265.72 59.09 17.7 123.94 35.04 194.21 52.47 53.26 12.78 110.69 26.01 171.01 38.79 137.55 28.96 291.28 57.02 459.8 82.67 17.77 3.31 35.97 6.53 54.13 9.03 1087.39 165.71 2761.79 276.39 4661.33 289.19 123.97.8 249.55 1.3 375.57 1.3 208.58 0 415.18-1.3 618.48-3.3 1483.2-17 2816.7-93.41 3821.4-208.26 31.4-3.67 61.2-7.42 90.9-10.73 298.7-35.57 567.3-74.81 800.3-116.55 336.3-61.14 598.2-128.44 770.5-199.94 14.8-6.17 29.3-12.43 42.9-18.59 126-58.28 193.4-118.97 193.4-181.8" style="fill:#3f3a41;fill-opacity:1;fill-rule:nonzero;stroke:none" transform="matrix(.14918 0 0 -.14918 0 2829.333)"/><path d="M11573 9619.8c-141.5-.9-283.8-1.4-427.1-1.4-87.8 0-175.6 0-263 .5-2422.49 10.2-4534.86 162.2-5745.87 387.3-209.4 38.9-392.01 80-544.55 123l-7.84 2.3c-37.91 203.8-56.86 408.1-57.78 611.1-6.49 996.5 421.57 1959.3 1194.87 2657.3 24.45 22.2 49.45 43.9 74.83 65.6 1146.79 982.2 2654.11 1093.6 4023.69 562.6 618.45-239.9 1175.45-657.3 1544.75-1205.5 61.5-91.1 117.9-186.3 168.3-284.3 182.5-355 281.9-805.2 304.6-1269.7 28.1-581.5-63.8-1184.7-264.9-1648.8" style="fill:#ebeda7;fill-opacity:1;fill-rule:nonzero;stroke:none" transform="matrix(.13333 0 0 -.13333 0 2829.333)"/><path d="M11837.8 11268.6c-22.6 464.5-122 914.7-304.6 1269.7-50.3 98-106.7 193.2-168.2 284.3-222.3 330-513 612.2-843.8 837.2 198.5-383.2 178.7-852.6 117.8-1314.3-74.4-562.8-107.3-1339.4-506.2-1784.4-343-382.7-935.34-439-1416.12-461.9-1394.92-66.5-2802.22 13.4-4170.34 299.8 9.4-89.1 21.73-178.4 38.3-267.5l7.84-2.3c152.54-43 335.1-84.1 544.5-123 1211.06-225.1 3323.38-377.1 5745.92-387.3 87.4-.5 175.2-.5 263-.5 143.3 0 285.6.5 427.1 1.4 201.1 464.1 293 1067.3 264.8 1648.8" style="fill:#e5e880;fill-opacity:1;fill-rule:nonzero;stroke:none" transform="matrix(.13333 0 0 -.13333 0 2829.333)"/><path d="M7480.11 13035.3c-714.45-424.8-1600.38-856.1-2048.71-1587.4-85.89-140.1-160.53-293.6-289.84-395-33.13-25.9-86.38-45.8-112.49-12.8-12.14 15.3-12.67 36.5-12.19 56 19.79 780.9 629.14 1500 1146.99 2024.3 280.78 284.3 598.14 542.8 969.78 689.5 137.1 54.2 285.95 92.9 431.32 68.7 145.44-24.3 285.7-124.3 320.63-267.5 59.74-245.3-188.54-446.7-405.49-575.8" style="fill:#f9faec;fill-opacity:1;fill-rule:nonzero;stroke:none" transform="matrix(.13333 0 0 -.13333 0 2829.333)"/><path d="M6658.13 11057.5c10.55 4.3 20.98 6.2 31.82 6.2 22.9.1 48.07-9.1 72.4-25 24.32-15.8 47.39-37.9 65.94-60.6 23.9-29.2 47.95-63 76.57-93 28.57-29.9 62.53-56.6 106.31-68.3 15.2-4 30.52-5.9 45.6-5.9 42 0 81.8 14.3 117.27 35.6 35.54 21.3 67.06 49.7 93.13 79.8 25.14 29.3 49.14 60.7 74.62 84.4 25.62 23.9 51.21 39.1 80.7 41.3 4.32.4 9.11.5 14.25.5 8.5 0 17.93-.3 27.77-.4 13.97.1 28.8.6 44 5.1 15.07 4.3 31.11 14 41.07 30.4l-42.29 26.4c-3.12-4.7-5.94-6.7-13.01-9-6.94-2.2-17.53-3-29.77-3-8.64 0-18.03.4-27.77.4-5.89 0-11.91-.1-18.02-.6-45.29-3.5-81.4-27-110.99-54.6-29.74-27.9-54.52-60.7-78.35-88.3-23.06-26.8-51.1-51.8-80.96-69.6-29.92-17.9-61.3-28.6-91.65-28.5-10.96 0-21.85 1.3-32.77 4.2-31.25 8.4-57.7 28-83.06 54.6-25.34 26.4-48.77 59.1-74.04 90.1-21.3 26-47.55 51.4-77.34 70.8-29.74 19.3-63.48 33.1-99.61 33.1-16.9 0-34.15-3.1-50.84-10l19.05-46.1zm2152.51 1232.2c22.14-58.5 46.14-119.8 87.14-172.8 41.36-53.1 102.01-96.9 173.68-102.5 4.83-.3 9.63-.5 14.41-.5 73.01.3 138 39.4 187.13 86.6 51.86 50.3 89.33 109.4 131.93 159.9 8.85 10.8 16.82 18.2 22.8 20.2l9.16 1.6c11.72.5 31.02-8.3 51.61-18.1 42.72-19.5 89.59-29.3 136.38-29.4 52.89 0 105.82 12.7 152.57 39.1 87.24 49.5 146.36 144.9 146.63 246.1v1.4h-.78l.78-.1v.1h-.78l.78-.1-49.79 2.7-.07-4c.26-81.2-49.5-162.4-121.3-202.7-38.56-21.8-83.12-32.6-128.04-32.6-39.75 0-79.7 8.5-115.68 24.9-19.05 8.3-42.43 22.1-72.31 22.6-8.72 0-17.95-1.4-26.96-4.9-21-8.3-33.4-23.3-43.19-34.7-45.26-54.1-82.04-111.5-128.4-156.1-43.15-41.8-98.5-72.9-152.47-72.6l-10.72.4c-52.47 3.6-102.9 38-137.95 83.3-35.28 45.4-58.06 101.8-79.87 159.8l-46.67-17.6zm-413.54 1318.6a160.8 160.8 0 0 1-4.6-38.5c.51-78.4 52.37-150.9 124.16-181.8 29.14-12.4 60.1-18 90.92-18 56.32 0 112.19 18.4 158.75 49.4 71.33 47.8 119.93 120.5 152.55 196l-45.8 19.8c-30.06-69.9-74.14-134.1-134.45-174.3-38.66-25.8-85.82-41.1-131.05-41-24.81 0-49 4.5-71.41 14-53.56 22.3-94.32 80.7-93.81 135.9.03 8.9 1.05 17.9 3.2 26.7l-48.44 11.8z" style="fill:#e5e880;fill-opacity:1;fill-rule:nonzero;stroke:none" transform="matrix(.13333 0 0 -.13333 0 2829.333)"/><path d="M16245.3 9644.14c-13.4-147.06-35.1-291.6-65.2-430.7-11.7-4.25-24.2-8.77-36.7-12.93-64.4-22.23-137.9-43.48-219-64.81-952.1-247.31-3024.4-423.2-5463.6-440.38-127.9-.81-256.5-1.27-386-1.27-79.4 0-158.76 0-237.76.46l-2.53 7.5c-170.48 492.62-212.6 999.35-139.57 1485.69 74.85 502.6 272.44 982.7 577.86 1402.6 134.5 185.5 290.8 359.3 466.2 518.1 22.3 20 44.8 39.7 67.3 59.3 1034.9 886.2 2394.9 986.4 3630.8 507.6 650.9-252.3 1226.6-723.2 1545.5-1344 235.1-458 317.4-1092.2 262.7-1687.16" style="fill:#8971b3;fill-opacity:1;fill-rule:nonzero;stroke:none" transform="matrix(.1475 0 0 -.1475 0 2829.333)"/><path d="M15982.5 11331.3c-278.4 542.3-753.1 970.2-1302.6 1237.9 193.9-170.7 373.7-359.7 487.9-594.3 133.1-273.6 178.4-588.2 178-890.1-.7-676.2-308.7-1248.13-927.9-1549.58-615.1-299.55-1314.4-318.53-1981.4-393.28-892.4-99.97-1790.8-77.56-2683.34-165.69 22.86-91.74 49.89-183.21 81.35-274.24l2.53-7.5c79-.46 158.36-.46 237.76-.46 129.5 0 258.1.46 386 1.27 2439.2 17.18 4511.5 193.07 5463.6 440.38 81.1 21.33 154.6 42.58 219 64.81 12.5 4.16 25 8.68 36.7 12.93 30.1 139.1 51.8 283.64 65.2 430.7 54.7 594.96-27.6 1229.16-262.8 1687.16" style="fill:#765da7;fill-opacity:1;fill-rule:nonzero;stroke:none" transform="matrix(.1475 0 0 -.1475 0 2829.333)"/><path d="M13395 12942.1c-654-512.8-1477.4-1054.1-1828.3-1836.8-67.2-150-121.6-311.8-236.8-428.9-29.6-30-79.8-56.5-110-27.1-13.9 13.6-17.2 34.5-19.2 53.9-80.4 777 431.7 1568.3 878.1 2154.7 242 317.9 523.6 614.9 873.4 808.1 129.1 71.2 271.7 128.7 419 123.3s299.2-86.6 352.2-224.1c90.7-235.6-129.7-467.3-328.4-623.1" style="fill:#d6c4e0;fill-opacity:1;fill-rule:nonzero;stroke:none" transform="matrix(.13333 0 0 -.13333 0 2829.333)"/><path d="M14127.5 13109.1c23.3-101.6 95.3-189.4 190.3-232.1 21-9.3 44.9-17.5 71.4-17.6l9.9.4c26.1 2.3 48.2 12.5 67.4 22.2 70.4 35.8 133.7 85.2 185.6 144.7 26.7 30.7 51.8 63.9 78.6 89.2 26.9 25.4 53.9 42.1 85.4 45l9.9.5c32.8.2 67.8-15.9 106.1-34.7 38.2-18.4 79.7-39.6 128.6-39.8l6.3.1c67.6 3.1 123.1 48.3 154.4 102.6 30.8 53.9 40.3 114.7 45.1 171.9l-49.7 4.1c-4.4-54.6-13.7-107.9-38.7-151.2-24.5-43-68.4-76.2-113-77.5l-4.4-.1c-33.3-.2-68.5 15.9-106.8 34.7-38.1 18.4-79.4 39.5-127.9 39.8-4.9 0-9.7-.2-14.7-.7-47-4.5-84.2-29.4-114.9-58.5-30.9-29.4-56.7-63.8-81.8-92.6-47.7-54.7-106.1-100.2-170.8-133.1-17.4-8.9-34-15.7-48.8-16.8l-5.8-.3c-15.7 0-33.3 5.3-51.1 13.3-80.1 35.7-142.6 111.9-161.9 197.5l-48.6-11zm-1471.6-2011.2c5.5-65.9 38.9-125.1 86.4-168 47.6-42.9 109.8-70.1 175.1-70.2 7.5 0 15.1.4 22.7 1.1 65 6.5 123.1 40.4 165.1 87.8 41.9 47.6 68.4 109.3 68.4 173.8 0 8.9-.5 17.8-1.5 26.6l-49.5-5.5c.7-7.1 1.1-14.1 1.1-21.1.1-50.6-21.2-101.5-55.9-140.7-34.7-39.3-82.1-66.3-132.6-71.2-6-.6-11.9-.9-17.8-.9-51.1-.1-102.4 21.8-141.7 57.3s-66 83.9-70.1 135zm2139.4 59-.2-6.7c.2-74 39.3-145.3 102.1-184.9 34.9-21.8 75.4-32.6 115.9-32.6 34.7 0 69.6 8 100.9 24.4 68.9 36.8 108.5 101.4 154.9 147.2 33.4 34 81 61.1 120.1 60.5 12.9 0 24.9-2.5 36.7-8.2 12-5.8 25.9-16.8 41.9-27.5 16-10.5 35.4-21.8 60.4-21.9l10 .6-6.2 49.5-3.8-.2c-8.5-.2-19.2 4.4-32.7 13.5-13.6 8.9-28.6 21.4-47.7 30.8-19 9.3-39 13.4-58.6 13.3-60.2-.5-115.4-35.3-155.4-75.2-51.2-52-89.3-110.8-142.8-138.2-23.6-12.4-50.6-18.7-77.7-18.7-31.6 0-63.1 8.5-89.4 25-47.6 29.6-78.9 86.5-78.7 142.6l.1 4.9z" style="fill:#765da7;fill-opacity:1;fill-rule:nonzero;stroke:none" transform="matrix(.13333 0 0 -.13333 0 2829.333)"/></svg>