<svg xmlns="http://www.w3.org/2000/svg" width="1200" height="630" fill="none" viewBox="0 0 1200 630"><path fill="#d7d4db" d="M0 0h1200v630H0z"/><path fill="#433f4c" d="M375.299 165.81c1.885-5.925 3.851-12.005 7.778-16.825 3.928-4.823 10.331-8.162 16.378-6.688 4.191 1.023 7.857 4.687 8.007 8.993.077 2.2-.714 4.328-1.503 6.383-9.321 24.294-43.095 95.981-50.139 107.613-2.336 3.855-19.071 32.996-20.315 17.413-.214-2.667.621-5.297 1.446-7.844 3.977-12.296 7.944-24.587 11.952-36.865 7.991-24.466 18.672-47.879 26.396-72.18"/><path fill="#7c7984" d="M371.534 162.635c1.885-5.925 3.85-12.004 7.781-16.825 3.928-4.821 10.331-8.162 16.378-6.686 4.187 1.019 7.854 4.687 8.006 8.99.077 2.202-.715 4.328-1.502 6.384-9.318 24.295-43.097 95.979-50.142 107.613-2.335 3.854-19.072 32.995-20.314 17.413-.211-2.668.623-5.297 1.448-7.844 3.973-12.297 7.944-24.586 11.952-36.867 7.989-24.464 18.668-47.876 26.393-72.178"/><path fill="#7c7984" d="M371.534 162.635c1.885-5.925 3.85-12.004 7.781-16.825 3.928-4.821 10.331-8.162 16.378-6.686 4.187 1.019 7.854 4.687 8.006 8.99.077 2.202-.715 4.328-1.502 6.384-9.318 24.295-43.097 95.979-50.142 107.613-2.335 3.854-19.072 32.995-20.314 17.413-.211-2.668.623-5.297 1.448-7.844 3.973-12.297 7.944-24.586 11.952-36.867 7.989-24.464 18.668-47.876 26.393-72.178"/><path fill="#683a38" d="M156.288 137.53c-.829-1.723-2.431-3.337-4.347-3.39-1.102-.03-2.1.576-3.089 1.064-5.338 2.634-11.772 6.842-17.674 7.365-3.787.335-7.354 2.216-11.156 2.216-.799.003-1.637-.075-2.358.268-1.125.538-1.566 1.882-1.895 3.082-.608 2.237-1.163 3.688-.354 5.872.688 1.856 1.513 3.675 2.266 5.507q2.431 5.92 4.853 11.846a9666 9666 0 0 1 9.979 24.507c9.16 22.579 18.255 45.182 27.341 67.789 1.549 3.855 21.316 53.725 21.589 53.625l39.764-14.651c-13.959-48.251-58.92-152.611-64.919-165.1"/><path fill="#9c6b66" d="M157.635 131.391c-.829-1.727-2.433-3.337-4.348-3.39-1.102-.03-2.1.574-3.088 1.062-10.61 5.238-21.393 9.352-31.573 15.048-.817.457-1.705.998-1.978 1.895-.223.726-.026 1.524.265 2.229 22.871 55.533 51.294 126.935 65.875 162.905l39.764-14.651c-13.958-48.25-58.919-152.609-64.917-165.098"/><path fill="#9c6b66" d="M157.635 131.391c-.829-1.727-2.433-3.337-4.348-3.39-1.102-.03-2.1.574-3.088 1.062-10.61 5.238-21.393 9.352-31.573 15.048-.817.457-1.705.998-1.978 1.895-.223.726-.026 1.524.265 2.229 22.871 55.533 51.294 126.935 65.875 162.905l39.764-14.651c-13.958-48.25-58.919-152.609-64.917-165.098"/><path fill="#683a38" d="M125.484 155.88a395 395 0 0 0 29.019-13.082l-.443-.885a396 396 0 0 1-28.948 13.05zM130.078 172.746q17.365-8.38 34.728-16.761l-.43-.892q-17.365 8.38-34.729 16.761l.432.892zM137.524 191.898a381 381 0 0 0 30.114-14.797l-.475-.868a380 380 0 0 1-30.037 14.759l.399.906zM145.719 209.621a557 557 0 0 1 35.982-16.296l-.377-.915a559 559 0 0 0-36.046 16.323l.442.888zM152.014 225.75a306 306 0 0 1 32.49-12.967l-.314-.94a306 306 0 0 0-32.597 13.012zM161.911 238.874a338 338 0 0 0 32.174-15.288l-.473-.872a336 336 0 0 1-32.079 15.245zM166.096 252.119a708 708 0 0 1 34.356-14.233l-.355-.923a704 704 0 0 0-34.406 14.252z"/><path fill="#683a38" d="M126.414 148.109a2134 2134 0 0 0 50.003 115.001l.898-.421a2134 2134 0 0 1-49.981-114.948zM141.039 145.674c15.442 35.835 26.27 73.58 42.061 109.358l.908-.399c-15.758-35.696-26.584-73.436-42.059-109.35zM147.931 138.605a1634 1634 0 0 1 29.397 74.924l.933-.34a1637 1637 0 0 0-29.416-74.968z"/><path fill="#683a38" d="M113.799 190.572c-1.353-1.356-3.399-2.35-5.224-1.768-1.051.332-1.793 1.232-2.566 2.018-4.171 4.246-8.858 10.335-14.258 12.771-3.465 1.563-6.212 4.514-9.8 5.766-.755.262-1.571.466-2.138 1.028-.886.877-.86 2.289-.772 3.532.162 2.311.118 3.865 1.602 5.659 1.262 1.528 2.64 2.973 3.957 4.455q4.248 4.791 8.49 9.586 8.766 9.917 17.507 19.856c16.098 18.303 32.144 36.653 48.182 55.007 2.734 3.131 37.85 43.71 38.075 43.525l32.709-26.918c-29.099-40.963-105.981-124.698-115.764-134.517"/><path fill="#9c6b66" d="M113.042 184.334c-1.351-1.356-3.397-2.349-5.223-1.768-1.051.333-1.793 1.232-2.565 2.018-8.29 8.437-17.112 15.869-24.844 24.598-.622.7-1.28 1.504-1.244 2.44.03.759.48 1.448.986 2.018 39.917 44.904 90.31 102.967 115.945 132.129l32.71-26.918c-29.098-40.962-105.981-124.697-115.765-134.517"/><path fill="#9c6b66" d="M113.042 184.334c-1.351-1.356-3.397-2.349-5.223-1.768-1.051.333-1.793 1.232-2.565 2.018-8.29 8.437-17.112 15.869-24.844 24.598-.622.7-1.28 1.504-1.244 2.44.03.759.48 1.448.986 2.018 39.917 44.904 90.31 102.967 115.945 132.129l32.71-26.918c-29.098-40.962-105.981-124.697-115.765-134.517"/><path fill="#683a38" d="M90.766 218.035a395 395 0 0 0 23.083-21.902l-.71-.688a394 394 0 0 1-23.026 21.844zM100.67 232.448l27.259-27.254-.702-.7-27.259 27.253.703.701zM114.021 248.083a381 381 0 0 0 23.549-23.882l-.736-.662a381 381 0 0 1-23.489 23.819zM127.603 262.119a556 556 0 0 1 28.597-27.226l-.657-.742a556 556 0 0 0-28.649 27.276l.71.692zM138.869 275.275a305 305 0 0 1 26.397-22.935l-.607-.784a306 306 0 0 0-26.482 23.011l.693.708zM152.543 284.408a337 337 0 0 0 25.332-25.021l-.733-.666a336 336 0 0 1-25.258 24.946l.66.741zM160.864 295.537a703 703 0 0 1 27.743-24.743l-.641-.756a702 702 0 0 0-27.782 24.779z"/><path fill="#683a38" d="M89.082 210.394a2136 2136 0 0 0 85.153 92.124l.709-.692a2134 2134 0 0 1-85.114-92.083zM102.086 203.283c26.404 28.752 49.079 60.824 75.794 89.409l.725-.675c-26.655-28.518-49.328-60.587-75.788-89.403l-.73.669zM106.26 194.338a1636 1636 0 0 1 52.477 61.066l.768-.628a1639 1639 0 0 0-52.508-61.101z"/><path fill="#f683b1" d="M212.823 178.862c-22.74 20.5-31.537 51.677-21.47 80.739 2.922 8.432 7.463 16.41 13.901 22.599 8.798 8.454 20.635 13.122 32.581 15.649 19.218 4.069 44.335 3.569 62.518-3.864 18.181-7.433 29.088-15.328 37.291-33.157 8.205-17.828 8.618-46.093-.362-63.543-7.572-14.719-21.238-25.883-36.686-31.862-29.329-11.357-61.612-8.975-86.172 12.032q-.812.696-1.601 1.407"/><path fill="#f46da2" d="M337.282 197.284c-5.551-10.788-14.382-19.655-24.781-25.983 6.663 6.633 11.904 14.822 13.914 23.764 2.773 12.333-2.121 23.987-12.703 30.808-5.423 3.495-11.609 5.652-17.564 8.049-6.628 2.669-11.573 6.093-17.26 10.331-11.991 8.935-26.051.512-38.447-3.754-17.169-5.909-35.042-10.99-53.186-6.809-.184 8.603 1.132 17.347 4.099 25.91 2.921 8.433 7.461 16.411 13.9 22.6 8.799 8.453 20.635 13.121 32.581 15.649 19.218 4.068 44.334 3.568 62.515-3.865 18.184-7.435 29.091-15.329 37.294-33.156 8.205-17.828 8.619-46.094-.362-63.544"/><path fill="#fabdd4" d="M250.526 186.769c-14.899 8.847-33.378 17.831-42.728 33.064-1.791 2.917-3.349 6.115-6.045 8.226-.691.541-1.801.953-2.347.266-.252-.318-.263-.758-.253-1.165.413-16.266 13.121-31.244 23.922-42.165 5.856-5.921 12.475-11.304 20.226-14.361 2.859-1.129 5.964-1.934 8.998-1.428 3.031.503 5.958 2.585 6.685 5.568 1.247 5.11-3.934 9.307-8.458 11.995"/><path fill="#f46da2" d="M250.507 219.202c.088 2.137.809 4.318 2.332 5.908 1.219 1.266 2.944 2.067 4.712 2.072.457 0 .918-.056 1.371-.172 1.8-.471 3.149-1.748 4.351-2.929 1.195-1.185 2.373-2.357 3.797-2.858a4 4 0 0 1 1.305-.221c.53 0 1.051.107 1.484.317.438.21.785.512 1.015.92l.933-.523a3.3 3.3 0 0 0-1.482-1.361 4.5 4.5 0 0 0-1.95-.422 5 5 0 0 0-1.665.283c-1.734.623-3 1.937-4.19 3.107-1.182 1.172-2.418 2.284-3.866 2.652q-.543.138-1.103.137c-1.435.003-2.918-.675-3.939-1.742-1.298-1.347-1.959-3.282-2.036-5.213zM285.048 184.646c.602 2.456 1.874 4.919 4.107 6.334a6.63 6.63 0 0 0 3.504.999c1.442 0 2.89-.485 3.921-1.573 1.246-1.33 1.607-3.075 2.269-4.463.294-.63.726-1.255 1.229-1.7.504-.449 1.054-.71 1.62-.71l.25.018c.363.047.728.207 1.123.425.394.216.813.487 1.296.699.622.271 1.288.4 1.954.4 1.114 0 2.23-.36 3.117-1.066v-.002c1.177-.941 1.847-2.41 1.852-3.898q0-.448-.085-.89l-1.049.198q.062.342.062.692c.002 1.161-.546 2.347-1.448 3.064-.677.543-1.566.834-2.449.834a3.8 3.8 0 0 1-1.524-.311c-.381-.165-.777-.416-1.212-.657-.436-.238-.92-.469-1.493-.547a3 3 0 0 0-.394-.027c-.907 0-1.7.414-2.335.979-.637.572-1.136 1.304-1.484 2.045-.71 1.551-1.087 3.16-2.076 4.183-.787.832-1.934 1.237-3.144 1.239a5.56 5.56 0 0 1-2.932-.836c-1.903-1.193-3.081-3.393-3.64-5.683zM263.478 164.278a3 3 0 0 0-.033.456c.002 1.204.619 2.268 1.496 3.019.88.751 2.032 1.22 3.214 1.222q.409.001.813-.079c1.347-.262 2.483-1.039 3.33-2.057a7.8 7.8 0 0 0 1.654-3.579l-1.052-.19a6.8 6.8 0 0 1-1.424 3.086c-.724.865-1.65 1.485-2.716 1.692-.195.04-.4.058-.605.058-.893.003-1.829-.369-2.518-.964-.693-.595-1.121-1.385-1.121-2.208q.001-.153.021-.314z"/><path fill="#3a3741" d="M318.069 477.438c-13.443-2.719-27.888-2.77-41.535-3.282-18.932-.71-38.762-1.43-57.459 2.189-4.588.889-14.826 3.578-15.255 9.578-.508 7.124 12.28 8.941 17.211 9.856 14.125 2.614 28.573 4.159 42.905 4.833 18.732.887 37.674.318 56.242-2.393 4.635-.675 14.517-3.07 16.357-8.09 3.392-9.261-12.426-11.433-18.38-12.672z"/><path fill="#6c6876" d="M102.216 318.574c16.43 39.838 32.07 70.486 48.791 96.966 21.737 34.427 46.543 52.837 71.619 62.494 39.268 15.12 96.543 14.687 135.332-28.495 9.681-10.773 18.6-24.368 27.273-39.443 14.723-25.594 28.187-55.721 41.72-91.522z"/><path fill="#7c7984" d="M102.217 318.574c16.429 39.838 32.069 70.486 48.79 96.966 6.097 9.659 12.339 17.942 18.672 25.09 13.105 7.139 26.485 9.989 37.872 5.466 13.129-5.213 21.407-20.318 26.527-39.915 6.078-23.256 8.92-53.805 8.635-87.607z"/><path fill="#433f4c" d="M382.081 318.574a656 656 0 0 1-5.422 18.364c-10.742 34.424-23.549 64.354-38.619 86.024-14.636 21.045-31.396 33.609-48.627 39.855-18.94 6.867-38.71 6.847-57.91 4.505-15.964-1.945-32.836-5.51-49.524-14.276 12.955 11.617 26.68 19.609 40.647 24.988 39.268 15.12 96.546 14.687 135.334-28.495 9.679-10.773 18.598-24.368 27.271-39.443 14.723-25.594 28.187-55.721 41.72-91.522z"/><path fill="#433f4c" d="M243.524 472.54c23.617-1.013 45.157-11.043 65.048-23.129 2.722-1.655.233-5.938-2.502-4.275-19.12 11.617-39.822 21.475-62.546 22.452-3.18.138-3.195 5.089 0 4.952M316.038 444.305q3.312-3.224 6.625-6.445c2.289-2.229-1.219-5.73-3.506-3.501q-3.313 3.221-6.627 6.445c-2.289 2.228 1.219 5.727 3.508 3.501M357.296 380.704a452 452 0 0 0 17.958-42.871c1.08-3.004-3.709-4.298-4.784-1.316a438 438 0 0 1-17.456 41.687c-1.375 2.86 2.898 5.373 4.282 2.5"/><path fill="#433f4c" d="M216.025 463.627c14.081 2.474 28.164 2.672 42.313.628 3.148-.457 1.809-5.228-1.317-4.776-13.21 1.909-26.534 1.684-39.678-.628-3.12-.549-4.46 4.223-1.318 4.776"/><path fill="#d6d4db" d="M177.437 428.908c2.845 3.154 5.903 6.286 9.586 7.681.636.242 1.348.422 1.928.086 1.413-.819.657-3.381-.246-4.995-18.894-33.756-30.194-71.006-39.559-109.178-.536-2.186-1.121-4.472-2.478-6.132-2.238-2.736-5.818-2.923-8.939-2.595a46 46 0 0 0-7.833 1.511c-.997.282-2.017.617-2.794 1.379-1.479 1.447-1.707 4.013-1.687 6.33.102 11.493 5.297 24.404 9.34 34.92 6.147 15.982 14.737 32.681 23.869 46.572 5.714 8.692 12.007 16.877 18.813 24.421"/><path fill="#7c7984" d="M427 318.101c0 13.575-72.721 24.58-162.429 24.58s-162.43-11.005-162.43-24.58c0-13.576 72.722-24.58 162.43-24.58S427 304.525 427 318.101"/><path fill="#3f3a41" d="M416.705 318.101c0 1.881-2.538 3.713-7.221 5.406-.278.1-.573.207-.871.306-1.529.527-3.272 1.03-5.197 1.536-22.6 5.862-71.786 10.032-129.681 10.439q-4.553.03-9.164.03c-1.883 0-3.767 0-5.642-.011-51.974-.219-97.293-3.475-123.275-8.298-4.492-.834-8.41-1.714-11.683-2.636l-.168-.049c-7.318-2.059-11.364-4.337-11.364-6.723 0-2.259 3.589-4.389 10.124-6.37 1.419-.425 2.975-.84 4.662-1.258a153 153 0 0 1 4.105-.93 200 200 0 0 1 11.037-1.982c.426-.079.863-.156 1.299-.216 26.102-3.973 66.294-6.626 111.89-6.933 2.976-.019 5.99-.031 9.015-.031 5.007 0 9.966.031 14.846.079 35.603.408 67.612 2.239 91.728 4.993.754.088 1.469.177 2.182.257 7.17.853 13.618 1.793 19.211 2.794 8.072 1.465 14.359 3.079 18.495 4.793.355.148.703.298 1.029.445 3.025 1.397 4.643 2.852 4.643 4.359"/><path fill="#ebeda7" d="M273.734 335.788q-4.553.03-9.163.03c-1.884 0-3.768 0-5.643-.011-51.973-.218-97.293-3.475-123.274-8.298-4.493-.833-8.41-1.714-11.683-2.635l-.168-.05a73 73 0 0 1-1.24-13.093c-.139-21.351 9.045-41.98 25.635-56.936.525-.475 1.061-.94 1.606-1.405 24.603-21.045 56.942-23.432 86.326-12.054 13.268 5.14 25.218 14.083 33.141 25.829a60 60 0 0 1 3.611 6.091c3.916 7.606 6.048 17.252 6.535 27.205.603 12.459-1.369 25.383-5.683 35.327"/><path fill="#e5e880" d="M279.415 300.461c-.485-9.953-2.617-19.599-6.535-27.205a59 59 0 0 0-3.609-6.091c-4.769-7.071-11.006-13.117-18.103-17.938 4.259 8.21 3.834 18.268 2.527 28.16-1.596 12.059-2.302 28.698-10.86 38.233-7.359 8.2-20.067 9.406-30.382 9.896-29.927 1.425-60.12-.287-89.472-6.423.202 1.909.466 3.822.822 5.731l.168.05c3.273.921 7.189 1.802 11.682 2.635 25.982 4.823 71.301 8.08 123.275 8.298a1463.423 1463.423 0 0 0 14.806-.019c4.314-9.944 6.286-22.868 5.681-35.327"/><path fill="#f9faec" d="M185.923 262.607c-15.328 9.102-34.335 18.343-43.954 34.012-1.842 3.002-3.444 6.291-6.218 8.463-.711.555-1.853.982-2.413.275-.261-.328-.272-.782-.262-1.2.425-16.732 13.498-32.139 24.608-43.373 6.024-6.091 12.833-11.63 20.806-14.773 2.942-1.161 6.135-1.991 9.254-1.472 3.12.52 6.129 2.663 6.879 5.731 1.282 5.256-4.045 9.571-8.7 12.337"/><path fill="#e5e880" d="M168.288 304.984c.227-.092.45-.133.683-.133.491-.002 1.031.195 1.553.536.522.338 1.017.812 1.415 1.298.513.626 1.029 1.35 1.643 1.993.613.64 1.341 1.212 2.281 1.463q.49.128.978.127c.901 0 1.755-.307 2.516-.763.762-.457 1.439-1.065 1.998-1.71.539-.628 1.054-1.301 1.601-1.808.549-.512 1.098-.838 1.731-.885a3 3 0 0 1 .306-.011c.182 0 .385.006.596.009.299-.003.618-.013.944-.11.323-.092.667-.3.881-.651l-.908-.566c-.066.101-.127.144-.279.193-.149.047-.376.064-.638.064-.186 0-.387-.008-.596-.008q-.19-.002-.387.013c-.971.075-1.746.578-2.381 1.17-.638.597-1.17 1.3-1.681 1.891-.495.575-1.096 1.11-1.737 1.492-.642.383-1.315.613-1.966.61-.235 0-.469-.027-.703-.09-.671-.18-1.238-.6-1.782-1.169-.544-.566-1.047-1.267-1.589-1.931a7.5 7.5 0 0 0-1.659-1.517c-.638-.413-1.362-.709-2.137-.709-.363 0-.733.066-1.091.214zM214.469 278.583c.475 1.253.99 2.567 1.87 3.702.887 1.138 2.188 2.076 3.726 2.196q.154.01.309.011c1.566-.006 2.961-.844 4.015-1.856 1.112-1.077 1.916-2.344 2.83-3.426.19-.231.361-.389.489-.432l.197-.035c.251-.01.665.178 1.107.388a7.1 7.1 0 0 0 2.926.63c1.135 0 2.27-.272 3.273-.838 1.872-1.06 3.141-3.104 3.146-5.273v-.03h-.016l.016.003v-.003h-.016l.016.003-1.068-.058-.001.085c.005 1.74-1.062 3.48-2.603 4.343a5.6 5.6 0 0 1-2.747.699c-.853 0-1.71-.182-2.482-.534-.408-.177-.91-.473-1.551-.484-.187 0-.385.03-.578.105-.451.178-.717.499-.927.744-.971 1.159-1.76 2.389-2.755 3.344-.926.896-2.113 1.562-3.271 1.556l-.23-.009c-1.126-.077-2.208-.814-2.96-1.785-.757-.972-1.245-2.181-1.713-3.423l-1.001.377zM205.597 250.33q-.1.413-.099.825c.011 1.68 1.124 3.233 2.664 3.895a5 5 0 0 0 1.951.386c1.208 0 2.407-.394 3.405-1.058 1.531-1.025 2.573-2.582 3.273-4.2l-.982-.424c-.645 1.498-1.591 2.873-2.885 3.734-.829.553-1.841.881-2.811.879a3.9 3.9 0 0 1-1.533-.3c-1.149-.478-2.023-1.729-2.012-2.912a2.5 2.5 0 0 1 .068-.572z"/><path fill="#8971b3" d="M411.031 313.297a85 85 0 0 1-1.547 10.209c-.278.101-.574.208-.871.307-1.529.527-3.273 1.031-5.198 1.536-22.599 5.862-71.786 10.032-129.681 10.439q-4.553.03-9.162.03c-1.885 0-3.768 0-5.643-.011l-.061-.178c-4.046-11.677-5.046-23.688-3.312-35.216 1.776-11.914 6.466-23.294 13.715-33.248a79.8 79.8 0 0 1 11.066-12.281q.795-.71 1.597-1.406c24.564-21.006 56.844-23.381 86.179-12.032 15.449 5.981 29.114 17.143 36.683 31.859 5.58 10.856 7.534 25.889 6.235 39.992"/><path fill="#765da7" d="M404.794 273.305c-6.608-12.855-17.875-22.998-30.918-29.344 4.602 4.047 8.87 8.527 11.581 14.088 3.159 6.485 4.234 13.942 4.224 21.099-.016 16.028-7.327 29.585-22.024 36.731-14.599 7.101-31.198 7.55-47.029 9.322-21.182 2.37-42.506 1.839-63.69 3.928a77 77 0 0 0 1.93 6.5l.061.178c1.875.011 3.758.011 5.643.011q4.61 0 9.162-.03c57.895-.407 107.082-4.577 129.681-10.439 1.925-.505 3.669-1.009 5.198-1.536.297-.099.593-.206.871-.307a85 85 0 0 0 1.547-10.209c1.299-14.103-.655-29.136-6.237-39.992"/><path fill="#d6c4e0" d="M312.824 264.604c-14.031 10.988-31.697 22.586-39.225 39.356-1.442 3.214-2.609 6.68-5.081 9.189-.635.643-1.712 1.211-2.36.581-.298-.291-.369-.739-.412-1.155-1.724-16.648 9.262-33.602 18.84-46.167 5.192-6.811 11.233-13.174 18.738-17.314 2.77-1.526 5.829-2.758 8.989-2.642s6.419 1.856 7.557 4.802c1.945 5.048-2.783 10.012-7.046 13.35"/><path fill="#765da7" d="M328.539 261.026a7.31 7.31 0 0 0 4.083 4.973c.451.199.963.375 1.532.377l.212-.008c.56-.05 1.034-.268 1.446-.476a13.3 13.3 0 0 0 3.982-3.1c.573-.658 1.112-1.369 1.687-1.912.577-.544 1.156-.902 1.832-.964l.212-.01c.704-.005 1.455.34 2.276.743.82.394 1.71.849 2.76.853l.135-.002c1.45-.067 2.641-1.035 3.312-2.199.661-1.154.865-2.457.968-3.683l-1.066-.088c-.095 1.17-.294 2.312-.831 3.24-.525.921-1.467 1.633-2.424 1.661l-.094.002c-.715.004-1.47-.341-2.292-.744-.817-.394-1.703-.846-2.744-.853q-.156 0-.315.015c-1.009.097-1.807.63-2.465 1.254-.663.63-1.217 1.367-1.755 1.984a12.3 12.3 0 0 1-3.665 2.852c-.373.19-.729.336-1.047.36l-.124.006c-.337 0-.715-.113-1.096-.285-1.719-.765-3.06-2.397-3.474-4.232l-1.043.236zM296.967 304.118c.118 1.412.834 2.681 1.854 3.6s2.355 1.502 3.756 1.504q.242 0 .487-.024c1.395-.139 2.641-.865 3.542-1.881.899-1.02 1.468-2.342 1.468-3.724q0-.286-.032-.57l-1.062.118q.023.228.023.452c.002 1.085-.455 2.175-1.199 3.015-.744.842-1.761 1.421-2.845 1.526a4 4 0 0 1-.382.019c-1.096.002-2.197-.467-3.04-1.228s-1.416-1.798-1.504-2.892zM342.866 302.854l-.004.144a4.74 4.74 0 0 0 2.191 3.961 4.7 4.7 0 0 0 2.486.699c.745 0 1.493-.172 2.165-.523 1.478-.788 2.328-2.173 3.323-3.154.717-.728 1.738-1.309 2.577-1.296.277 0 .534.053.787.176.258.124.556.36.899.589.344.225.76.467 1.296.469l.215-.013-.133-1.06-.082.004c-.182.004-.412-.094-.701-.289-.292-.191-.614-.459-1.024-.66a2.8 2.8 0 0 0-1.257-.285c-1.292.01-2.476.756-3.334 1.611-1.099 1.114-1.916 2.374-3.064 2.961a3.6 3.6 0 0 1-1.667.401 3.63 3.63 0 0 1-1.918-.536c-1.021-.634-1.693-1.853-1.688-3.055l.002-.105z"/><text xml:space="preserve" fill="#534e58" font-family="Segoe UI Variable" font-size="96" font-weight="bold" letter-spacing="0em" style="white-space:pre"><tspan x="471" y="303.75">Scoop</tspan></text><text xml:space="preserve" fill="#534e58" font-family="Segoe UI Variable" font-size="48" letter-spacing="0em" style="white-space:pre"><tspan x="471" y="368.875">A command-line installer for </tspan><tspan x="471" y="422.875">Windows</tspan></text><text xml:space="preserve" fill="#000" fill-opacity=".2" font-family="Segoe UI Variable" font-size="48" letter-spacing="0em" style="white-space:pre"><tspan x="471" y="368.875">A command-line installer for </tspan><tspan x="471" y="422.875">Windows</tspan></text></svg>